<svg width="140" height="140" viewBox="0 0 140 140" fill="none" xmlns="http://www.w3.org/2000/svg">
    <path opacity="0.15" fill-rule="evenodd" clip-rule="evenodd" d="M116.225 70.6029C122.346 63.9471 126.084 55.0644 126.084 45.3087C126.084 24.6668 109.35 7.93332 88.7087 7.93332C73.1797 7.93332 59.8627 17.4039 54.2184 30.8843C53.2638 30.8284 52.3019 30.8 51.3333 30.8C24.5291 30.8 2.8 52.5291 2.8 79.3333C2.8 106.138 24.5291 127.867 51.3333 127.867C65.1538 127.867 77.6251 122.09 86.4642 112.819C91.1978 117.517 97.7157 120.419 104.911 120.419C119.375 120.419 131.101 108.693 131.101 94.2293C131.101 83.8173 125.025 74.8243 116.225 70.6029Z" fill="#0D3ECC"/>
    <path fill-rule="evenodd" clip-rule="evenodd" d="M61.6352 23.1784C60.9504 23.304 60.3673 23.7652 60.1477 24.4258C58.1049 30.5688 51.0912 33.474 45.3029 30.5747C44.6835 30.2644 43.9487 30.35 43.3784 30.7432C38.6194 34.0245 34.4902 38.1538 31.2091 42.9129C30.816 43.483 30.7305 44.2177 31.0406 44.837C33.94 50.6252 31.0348 57.6389 24.8917 59.6817C24.2316 59.9012 23.7707 60.484 23.6452 61.1683C23.1338 63.9567 22.8667 66.8305 22.8667 69.7667C22.8667 72.7028 23.1338 75.5766 23.6452 78.365C23.7707 79.0494 24.2316 79.6321 24.8917 79.8516C31.0348 81.8944 33.94 88.9081 31.0406 94.6964C30.7305 95.3156 30.816 96.0503 31.2091 96.6205C34.4902 101.38 38.6194 105.509 43.3784 108.79C43.9487 109.183 44.6835 109.269 45.3029 108.959C51.0912 106.059 58.1049 108.965 60.1477 115.108C60.3673 115.768 60.9504 116.229 61.6352 116.355C64.4235 116.866 67.2972 117.133 70.2333 117.133C73.1688 117.133 76.0418 116.866 78.8296 116.355C79.5145 116.23 80.0978 115.768 80.3176 115.108C82.3603 108.965 89.3741 106.059 95.1623 108.959C95.7823 109.269 96.5177 109.183 97.0885 108.79C101.847 105.509 105.975 101.381 109.256 96.623C109.649 96.0521 109.735 95.3164 109.425 94.6964C106.525 88.9081 109.43 81.8944 115.574 79.8516C116.235 79.6317 116.696 79.048 116.822 78.3627C117.333 75.575 117.6 72.702 117.6 69.7667C117.6 66.8313 117.333 63.9583 116.822 61.1707C116.696 60.4853 116.235 59.9016 115.574 59.6817C109.43 57.6389 106.525 50.6252 109.425 44.837C109.735 44.2169 109.649 43.4812 109.256 42.9103C105.975 38.1524 101.847 34.0241 97.0885 30.7434C96.5177 30.3498 95.7822 30.2642 95.1623 30.5747C89.3741 33.474 82.3603 30.5688 80.3176 24.4258C80.0978 23.765 79.5145 23.3037 78.8296 23.1781C76.0418 22.667 73.1688 22.4 70.2333 22.4C67.2972 22.4 64.4235 22.6671 61.6352 23.1784Z" fill="#0F68EE"/>
    <path fill-rule="evenodd" clip-rule="evenodd" d="M70.4664 102.2C88.25 102.2 102.666 87.7836 102.666 70C102.666 52.2164 88.25 37.8 70.4664 37.8C52.6829 37.8 38.2664 52.2164 38.2664 70C38.2664 87.7836 52.6829 102.2 70.4664 102.2ZM70.4664 89.1333C81.0335 89.1333 89.5998 80.567 89.5998 70C89.5998 59.4329 81.0335 50.8667 70.4664 50.8667C59.8994 50.8667 51.3331 59.4329 51.3331 70C51.3331 80.567 59.8994 89.1333 70.4664 89.1333Z" fill="#0C54C0"/>
    <path fill-rule="evenodd" clip-rule="evenodd" d="M102.637 71.4C102.657 70.9358 102.667 70.4691 102.667 70C102.667 52.2164 88.2502 37.8 70.4667 37.8C52.6831 37.8 38.2667 52.2164 38.2667 70C38.2667 70.4691 38.2767 70.9358 38.2966 71.4C39.0295 54.2659 53.1522 40.6 70.4667 40.6C87.7812 40.6 101.904 54.2659 102.637 71.4Z" fill="#3F87F3"/>
    <path fill-rule="evenodd" clip-rule="evenodd" d="M51.8173 69.3506C51.8058 69.6197 51.8 69.8903 51.8 70.1623C51.8 80.4716 60.1573 88.829 70.4667 88.829C80.776 88.829 89.1333 80.4716 89.1333 70.1623C89.1333 69.8904 89.1275 69.6199 89.116 69.3508C88.6911 79.2835 80.504 87.2058 70.4667 87.2058C60.4293 87.2058 52.2422 79.2835 51.8173 69.3506Z" fill="#3F87F3"/>
    <path fill-rule="evenodd" clip-rule="evenodd" d="M75.8844 60.0822C75.6437 60.2545 75.4139 60.4487 75.1977 60.6649L73.109 62.7536C70.9796 64.883 70.9796 68.3353 73.109 70.4646C75.2383 72.5939 78.6906 72.5939 80.8199 70.4646L82.9086 68.3759C83.139 68.1455 83.3444 67.8997 83.5249 67.6417L84.3268 70.6344C85.159 73.7402 84.2711 77.0541 81.9975 79.3277L79.1335 82.1917C76.8599 84.4653 73.546 85.3532 70.4402 84.521L66.528 83.4728C63.4222 82.6406 60.9962 80.2146 60.164 77.1088L59.1158 73.1966C58.2836 70.0908 59.1715 66.7769 61.4451 64.5033L64.3091 61.6393C66.5827 59.3657 69.8966 58.4778 73.0024 59.31L75.8844 60.0822Z" fill="#0C54C0"/>
    <path d="M63.6205 74.2203C66.8293 74.1109 69.4599 76.7414 69.3505 79.9503C69.3026 81.3545 68.7234 82.6882 67.7298 83.6817L51.1004 100.311C50.1069 101.305 48.7732 101.884 47.369 101.932C44.1601 102.041 41.5296 99.4106 41.639 96.2018C41.6869 94.7976 42.2661 93.4639 43.2596 92.4704L59.8891 75.8409C60.8826 74.8474 62.2163 74.2682 63.6205 74.2203Z" fill="#0C54C0"/>
    <path d="M62.504 71.8175C65.7128 71.7081 68.3434 74.3387 68.234 77.5475C68.1861 78.9517 67.6068 80.2854 66.6133 81.2789L49.9839 97.9084C48.9903 98.9019 47.6567 99.4811 46.2524 99.529C43.0436 99.6385 40.413 97.0079 40.5224 93.7991C40.5703 92.3948 41.1496 91.0611 42.1431 90.0676L58.7725 73.4382C59.7661 72.4447 61.0997 71.8654 62.504 71.8175Z" fill="#FFCC28"/>
    <path fill-rule="evenodd" clip-rule="evenodd" d="M42.0263 91.761C41.8786 91.9099 41.7607 92.0856 41.6789 92.2788C41.3267 93.1107 42.3772 93.8211 43.018 93.1842L63.8287 72.5059L63.5043 72.1814C63.297 72.1667 63.0865 72.1636 62.8734 72.1729C62.2469 72.2001 61.6355 72.335 61.0642 72.5668L42.0263 91.761Z" fill="#FFEBAF"/>
    <path fill-rule="evenodd" clip-rule="evenodd" d="M82.2817 65.1656C82.0893 65.4504 81.8671 65.721 81.615 65.9731L79.5263 68.0618C77.3969 70.1911 73.9446 70.1911 71.8153 68.0618C69.686 65.9325 69.686 62.4802 71.8153 60.3508L73.904 58.2621C74.1576 58.0085 74.4301 57.7851 74.7168 57.5918L71.7492 56.7967C68.6434 55.9645 65.3295 56.8524 63.0559 59.1261L60.1919 61.99C57.9183 64.2636 57.0304 67.5775 57.8626 70.6833L58.9108 74.5955C59.743 77.7013 62.169 80.1273 65.2748 80.9595L69.187 82.0077C72.2928 82.84 75.6067 81.952 77.8803 79.6784L80.7443 76.8144C83.0179 74.5408 83.9058 71.2269 83.0736 68.1211L82.2817 65.1656Z" fill="#FFCC28"/>
    <path fill-rule="evenodd" clip-rule="evenodd" d="M62.9024 78.638C62.7208 78.2242 62.5691 77.7937 62.45 77.3494L60.8386 71.3353C60.0064 68.2295 60.8943 64.9156 63.168 62.642L67.5706 58.2393C67.977 57.8329 68.4168 57.4707 68.8826 57.1547C67.0034 57.4338 65.228 58.3054 63.8401 59.6932L61.4388 62.0945C59.1652 64.3682 58.2773 67.682 59.1095 70.7879L59.9884 74.0681C60.4753 75.8851 61.5076 77.4694 62.9024 78.638Z" fill="#FFEBAF"/>
    </svg>
    